# xmcd
#
# Track frame offsets:
#	150
#	23767
#	46604
#	62349
#	88303
#	105299
#	127846
#	149097
#	172573
#	190442
#	215126
#	241346
#	269393
#	291699
#
# Disc length: 4097
#
# Revision: 1
# Processed by: cddbd v1.5.1PL0 Copyright (c) Steve Scherf et al.
# Submitted via: CDex 1.51
# Normalized: r0:TDELIM( - )
#
DISCID=c90fff0e
DTITLE=Various Artist - Blues in the Night
DYEAR=2005
DGENRE=Blues
TTITLE0=B.B. King - The Blues Come Over Me
TTITLE1=Charles Brown - Black Night
TTITLE2=Irma Thomas - I Count The  Teardrops
TTITLE3=Johnny Adams - Walking On A Tightrope
TTITLE4=Wilson Pickett - It's Harder Now
TTITLE5=Etta James - Nightime Is The Righttime
TTITLE6=Theryl De Clouet - Battlin' The Bllues
TTITLE7=Aretha Franklin - Nobody Knows The Way I Feel This Morning
TTITLE8=Robert Cray - I Wonder
TTITLE9=Charles Brown - I Won't Cry Anymore
TTITLE10=Johnny Adams - I Wonder Where Our Love Has  Gone
TTITLE11=Walter Washington - Hello Stranger
TTITLE12=Ruth Brown - Sold My Heart To The Junkman
TTITLE13=Bobby Bland - Blues In The Night
EXTD=YEAR: 2005
EXTT0=
EXTT1=
EXTT2=
EXTT3=
EXTT4=
EXTT5=
EXTT6=
EXTT7=
EXTT8=
EXTT9=
EXTT10=
EXTT11=
EXTT12=
EXTT13=
PLAYORDER=
